<?xml version="1.0" encoding="UTF-8"?>
<svg id="_Шар_1" data-name="Шар 1" xmlns="http://www.w3.org/2000/svg" viewBox="0 0 958.69 957.69">
  <defs>
    <style>
      .cls-1 {
        fill: #c00;
        stroke: #c00;
        stroke-miterlimit: 10;
      }
    </style>
  </defs>
  <path class="cls-1" d="M230.12,816.11c-5.94-.09-11.57-1.39-17.02-4.24-5.68-3.5-9.73-7.59-11.72-13.16-1.05-2.95-1.45-6.13-1.32-9.87,.35-4.19,1.26-7.84,2.94-11.39,6.89-16.86,16.67-31.81,28.47-45.26,9.65-11.21,20.66-20.68,33.14-28.1,1.19-.8,2.17-1.15,3.48-1.62l1.31-.47c3.06-.73,6.06,.42,7.65,2.8,.23,.66,.68,.87,.91,1.52,.82,2.29,.33,5.05-1.61,6.85-1.17,1.89-3.01,2.92-4.86,3.95-24.52,15.05-41.2,36.52-53.51,61.97-1.05,2.22-1.87,5.1-2.8,7.65-.61,2.43-.44,4.96,.15,6.59,1.05,2.95,3.18,4.77,6.29,6.24,4.77,1.99,9.73,2.43,14.78,2.1,6.8-.59,13.7-1.95,19.92-4.17,3.27-1.17,6.43-2.67,9.59-4.17,14.26-6.58,27.04-15.21,38.56-26.35,10.89-9.8,20.09-21.22,25.84-35.09,3.46-7.88,4.92-16.16,4.08-24.72-.4-3.18-1.01-5.91-2.06-8.86-2.46-6.87-6.77-12.72-12.05-18.21-7.21-7.76-15.58-13.62-24.91-18.04-17.57-8.85-35.92-13.73-54.79-16.94-26.38-4.59-53.22-5.32-79.95-5.73-26.28-.2-52.42,1.04-79.05-.14-10.78-.2-21.79-1.06-32.5-3.14-8.39-1.8-16.7-4.36-24.6-8.92-10.01-5.28-17.22-13.04-20.97-23.51-3.4-9.49-3.61-19.38-2.08-29.53,2.45-13.8,8.1-26.89,15.2-39.03,14.41-24.72,32.96-46.13,53.08-66.25,27.01-26.65,56.62-50.17,88.5-70.44,17.13-10.93,34.94-21,53.55-29.87,13.16-6.56,26.88-12.57,40.63-17.49,3.6-1.29,7.64-2.37,11.24-3.65,23.59-7.33,47.67-12.26,72.73-12.37,7.37-.05,14.64,.67,21.61,2.61,8.63,2.45,15.44,7.03,20,14.62,1.47,2.06,2.95,4.11,4.1,6.29l.47,1.31c1.29,3.6,.26,6.92-2.66,9.07-.65,.23-.87,.68-1.52,.91-2.62,.94-6.38-.3-8.54-3.22-1.36-1.73-2.27-3.25-3.3-5.09-2.76-5.66-7.44-8.41-13.19-10.05-5.31-1.42-10.27-1.86-15.43-1.86-15.5,0-30.96,2.22-45.73,5.29-11.6,2.67-22.63,5.88-33.76,9.86-6.87,2.46-13.96,5.36-21.04,8.27-17.76,7.1-34.83,16.16-51.33,25.75-33.99,19.55-65.58,42.67-94.47,69.25-20.05,18.25-38.42,38.11-53.65,60.55-7.45,11.16-14.13,22.41-18.47,35.04-2.68,7.97-4.6,16.04-4.19,24.39,.19,3.62,.71,7.13,1.88,10.4,2.58,7.2,7.98,13.02,15.65,16.92,7.23,3.69,14.85,5.39,22.68,6.65,14.57,2.54,29.09,2.88,43.94,3.11,22.87-.06,46.06-.24,69.37-.09,23.64,.03,46.97,1.28,70.48,5.05,21.51,3.38,42.63,8.74,61.97,18.43,12.56,6.21,23.39,13.78,32.31,24.25,5.41,5.82,9.73,12.76,12.43,20.29l.7,1.97c3.8,12.67,3.41,24.99-.93,37.62-4.01,12.51-10.93,23.11-19.29,32.75-14.79,17.48-32.86,30.96-53.31,40.86l-16.04,5.74c-8.84,3.16-17.81,4.9-26.96,4.11Z"/>
  <path class="cls-1" d="M333.82,656.06c-2.43-.61-3.95,.31-5.82,.24-3.41-.26-6.43-2.5-7.37-5.12-.35-.98-.49-2.41-.19-3.62,.49-2.76,2.1-4.44,4.72-5.38,5.56-1.99,9.65-6.04,13.98-9.43,1.19-.8,1.38-2.34,2.01-3.67,5.6-20.46,12.09-40.5,19.79-60.24,7.07-18.41,15.15-36.07,26.67-52.37,5.86-8.37,12.41-15.88,21.52-21.36,1.85-1.03,3.81-1.73,5.45-2.32,1.31-.47,2.62-.94,4.05-1.08,10.19-1.43,18.33,3.78,22.74,14.01l.59,1.64c1.99,5.56,2.23,11.38,1.81,17.44-1.09,15.53-7.16,29.51-15.9,42.24-7.12,11.04-16.71,20.38-25.96,29.59-14.86,14.18-29.96,27.7-45.29,40.57-2.59,2.04-3.97,4.37-4.67,7.58-7.14,25.44-12.62,51.4-17.77,77.24-7.78,41.18-14.68,82.78-18.93,124.54-2.86,30.19-4.62,60.35-6.37,90.52-.25,3.41-.72,7.27-.86,11.01-.07,1.87-.25,3.41-1.21,4.86-1.17,1.89-2.57,3.13-4.21,3.72-.65,.23-1.64,.58-2.41,.49-3.3,.07-5.43-1.75-6.81-4.58-1.05-2.95-1.45-6.13-1.53-9.42-1.25-16.9-1.96-34.37-2.23-51.63-.73-48.47,1.18-96.78,4.52-145.23,2.71-41.95,6.85-84.04,12.64-125.62,3.21-24.04,6.75-48.2,9.96-72.23,.74-6.17,1.37-12.67,1.79-18.73,.26-3.41,.51-6.83,.11-10.01-.31-3.95,1.61-6.85,4.88-8.02l.65-.23c3.83-.63,6.73,1.28,8.47,5.09,.82,2.29,1.31,4.7,1.15,7.34-1.07,16.63-3.23,33.28-5.51,49.6-7.57,51.07-14.57,102.68-18.28,154.22-1.6,22.35-3.2,44.71-4.03,67.15-.09,.77-.07,1.87-.04,2.97,7.76-47.45,16.28-94.8,27.9-141.78Zm29.92-44.3c8.83-8.33,18.11-16.45,26.62-24.66,8.62-7.88,17.01-16.42,23.95-25.92,6.82-9.82,12.31-20.28,14.36-32.09,.86-5.84,1.07-11.46-.92-17.02l-.47-1.31c-2.29-4.35-4.07-5.19-8.65-3.55-5.24,1.87-9.11,5.48-12.43,9.62-8.15,9.19-14.42,19.56-19.79,30.34-7.89,16.11-14.01,33.07-20.12,50.03-1.87,5.1-3.41,10.08-5.37,15.95l1.31-.47c.65-.23,1.31-.47,1.52-.91Z"/>
  <path class="cls-1" d="M500.44,532.57c1.31-.47,2.62-.94,3.69-2.06,4.53-3.84,7.83-9.08,10.79-14.2,5.61-10.13,11.54-20.37,17.59-30.29,1.92-2.9,3.5-5.68,5.54-8.26,.96-1.45,2.36-2.69,3.67-3.16,1.31-.47,2.74-.61,4.07,.02,2.43,.61,4.12,2.22,4.82,4.18,.47,1.31,.61,2.74,.1,4.4-.19,1.54-.82,2.88-1.56,3.88-8.29,12.94-15.58,26.62-23.43,39.76-2.76,4.68-5.96,9.15-10.05,13.19-2.69,2.81-5.94,5.08-9.86,6.48-1.64,.59-3.39,.84-5.14,1.1-9.54,1.2-16.56-2.94-22.01-10.95-1.59-2.39-2.97-5.21-3.91-7.83-1.29-3.6-1.92-7.43-2.55-11.27-2.47-17.21,.26-33.32,8.39-48.78,3.06-5.89,7.24-10.71,13.32-14.36,1.19-.8,2.5-1.26,3.48-1.61,7.53-2.69,14.19,.46,16.89,7.98,.47,1.31,.61,2.74,.87,4.49,.4,3.18,.03,6.27-.79,9.14-2.85,10.62-8.26,19.2-16.35,26.53-2.27,1.92-4.98,3.63-7.6,4.56l-2.29,.82c-1.96,.7-1.94,1.8-2.13,3.35,.31,3.95,.94,7.78,2.23,11.38l2.34,6.55c2.41,4.67,5.97,6.36,9.89,4.95Zm-.41-64.09c-6.71,4.98-9.63,12.3-11.21,20.26,5.82-5.4,10.51-11.89,11.21-20.26Z"/>
  <path class="cls-1" d="M544.96,532.14c-2.6-3.13-4.66-6.82-5.95-10.42-.82-2.29-1.76-4.91-1.92-7.44-3.12-22.14,.6-42.67,12.28-61.62,2.34-3.79,5.02-6.6,8.6-8.98,.87-.68,1.85-1.03,2.83-1.38,3.93-1.41,8.23-.73,11.81,2.05,1.57,1.28,2.81,2.69,3.28,4,.59,1.64,.52,3.51-.32,5.29-.72,2.1-2.13,3.34-3.76,3.93-1.31,.47-2.73,.61-4.72,.21-.89-.42-1.66-.51-2.64-.16-.65,.23-1.19,.79-1.94,1.8-3.41,4.91-5.61,10.13-7.68,15.67-3.8,12.07-5.41,24.09-3.04,36.9,.14,1.43,.28,2.85,.75,4.16,.35,.98,1.03,1.85,1.38,2.83,1.5,3.16,2.5,3.9,4.14,3.32,.65-.24,1.52-.91,2.71-1.71,2.59-2.04,4.42-4.16,6-6.95,3.08-4.79,5.84-9.47,8.48-14.48,8.15-14.36,17.75-27.77,28.36-40.42,2.57-3.13,5.05-5.5,8.3-7.77,.54-.56,1.19-.8,1.85-1.03,1.96-.7,3.83-.63,5.5-.12,2.76,.49,4.77,1.99,5.59,4.28,.12,.33,.02,1.1,.14,1.43,.4,3.18-.42,6.06-3.25,7.44-3.81,1.73-6.38,4.87-9.07,7.67-11.89,14.22-21.45,29.82-30.44,45.96-3.27,6.34-7.66,11.6-13.06,16.12-2.06,1.47-4.44,3.06-6.73,3.88-6.87,2.46-12.51,1.15-17.47-4.46Z"/>
  <path class="cls-1" d="M619.83,491.69c-1.03-1.85-1.62-3.48-2.32-5.45-1.64-4.58-2.51-9.07-3.16-14-1.62-13.82-.72-27.8,1.73-41.6,.7-3.21,1.51-6.08,3.1-8.87,1.38-2.34,3.11-3.7,5.07-4.4,1.96-.7,3.84-.63,5.94,.09,2.55,.93,4.35,2.87,5.05,4.84,1.05,2.95,.35,6.15-2.24,8.19-1.85,1.03-2.36,2.69-2.76,4.68-2.24,13.35-3.05,26.56-.77,40.15,.59,1.64,.84,3.39,1.31,4.7,.59,1.64,1.5,3.16,2.08,4.79,1.5,3.16,2.83,3.79,6.55,2.82l.98-.35c2.95-1.05,5.42-3.42,7.57-5.66,5.05-5.5,9.09-11.74,12.68-18.2,6.47-10.81,12.61-21.5,18.76-32.19,1.28-1.57,2.13-3.34,3.41-4.91,.75-1.01,1.94-1.8,2.92-2.15,1.96-.7,4.28-.42,6.17,.74,1.33,.63,2.57,2.03,3.16,3.67,.47,1.31,.4,3.18-.11,4.84-.3,1.22-1.05,2.22-1.68,3.55-8.06,13.59-16,27.51-24.39,41.22-3.5,5.68-7.24,10.71-12.08,15.77-3.34,3.04-7.13,5.87-13.35,8.1-9.49,3.4-18.14-.15-23.65-10.37Zm2.17-86.8l-.47-1.31c-1.17-3.27,.07-7.04,3.53-9.75,.86-.68,1.4-1.24,2.38-1.59,2.62-.94,5.82-.24,7.95,1.59,1.01,.75,1.8,1.94,2.15,2.92,.58,1.64,.73,3.06,.21,4.72-1.14,2.99-3.62,5.36-6.12,6.62-4.25,1.52-8.14-.04-9.64-3.2Z"/>
  <path class="cls-1" d="M773.34,427.53c6.54-12.68,13.08-25.35,21.07-37.07,.96-1.45,1.91-2.9,3.32-4.14,.75-1.01,1.73-1.36,2.71-1.71,1.96-.7,4.28-.42,6.17,.74,1.33,.63,2.13,1.82,2.6,3.13,.59,1.64,.52,3.51,0,5.17-.51,1.66-1.47,3.11-2.43,4.56-6.28,9.26-11.56,19.28-16.84,29.29-3.39,6.01-6.33,12.23-10.04,18.36-2.13,3.35-4.69,6.48-7.83,9.08-1.4,1.24-3.25,2.27-4.56,2.74-5.89,2.11-11.11-.09-14.97-5.72-1.36-1.73-2.39-3.58-3.21-5.87-1.05-2.95-1.57-6.45-1.97-9.63-1.06-8.11-.69-16.37-.65-24.5,.07-1.87,.14-3.74-.24-5.82-.75,1.01-1.5,2.01-1.8,3.23-6.72,14.22-13.78,28.56-20.5,42.78-3.27,6.34-6.54,12.68-11.14,18.39-2.03,2.57-4.51,4.94-7.43,7.09-1.19,.8-2.39,1.59-3.69,2.06-5.89,2.11-12.65-.27-16.86-6.89-1.03-1.85-2.06-3.69-2.88-5.98-.7-1.96-1.2-4.37-1.57-6.45-3.47-23.12,2.33-44.03,18.67-61.32,3.55-3.49,7.67-6.43,12.25-8.07,1.31-.47,2.62-.94,4.04-1.08,4.16-.75,8.46-.07,12.44,.72,2.88,.82,5.54,2.08,7.83,1.26l.33-.12c2.62-.94,2.99-4.02,4.37-6.36,2.01-3.67,3.69-7.23,5.81-10.57,1.29-1.57,2.45-3.46,4.63-4.61,.65-.23,1.19-.8,1.52-.91,4.25-1.52,8.7,.58,10.34,5.16,.94,2.62,1.1,5.14,.94,7.79-.84,6.94-1.35,13.77-1.86,20.6-.65,10.57-1.29,21.14-.07,31.78,.02,1.1,.49,2.41,1.08,4.04,.35,.98,.7,1.96,1.5,3.15,3.85-4.7,6.17-9.59,8.92-14.27Zm-75.38,36.94c.65-.23,.87-.68,1.73-1.36,1.4-1.24,2.48-2.36,3.43-3.81,2.45-3.46,4.79-7.25,6.35-11.13,5.37-10.78,10.41-21.45,15.46-32.11,1.38-2.34,2.64-5.01,3.9-7.67,.54-.56,.75-1,.51-1.66-.12-.33-.68-.87-1.45-.96-4.21-1.45-8.07-1.91-11.99-.51-1.31,.47-3.16,1.5-4.56,2.74-1.07,1.12-2.59,2.04-3.55,3.49-8.9,10.2-13.03,22.38-13.52,35.48-.44,4.96,.1,9.56,1.18,13.61l.7,1.96c.91,1.52,1.15,2.17,1.8,1.94Z"/>
  <path class="cls-1" d="M957.97,62.42c-1.36,28.18-7.14,55.35-14.8,82.45-7.54,27.43-17.62,53.93-30.25,79.49-13.36,27.67-28.82,54.62-47.74,79.11-14.11,18.34-30.02,34.74-48.63,48.78-3.13,2.6-4.51,4.94-4.53,9-.97,21.02-1.61,41.93-1.04,63.13,.43,14.61,2.29,29.09,5.9,43.3,.38,2.08,1.08,4.04,1.78,6.01,.94,2.62,2.32,5.45,3.91,7.83,2.83,3.79,5.17,5.17,8.44,3.99,.98-.35,2.17-1.15,3.37-1.94,3.79-2.83,6.89-6.53,9.67-10.11,8.22-11.07,15.44-22.88,22-34.45,10.58-18.92,20.27-38.27,32.75-56.02,11.4-16.63,24.48-31.65,38.81-45.27,1.4-1.24,2.8-2.48,4.44-3.06,2.95-1.05,5.71-.57,7.62,1.7,.68,.87,.91,1.52,1.26,2.5,.7,1.96,.75,4.16-.42,6.06-.96,1.45-2.03,2.57-3.43,3.81-17.76,17.43-33.51,36.36-46.12,57.85l-20.32,36.07c-8.24,15.13-16.93,30.06-27.75,43.16-3.85,4.7-8.27,8.87-13.48,11.84-1.19,.8-2.5,1.26-3.81,1.73-7.2,2.58-14.71,1.2-20.32-4.17-4.94-4.51-8.03-10.05-10.13-15.94l-.82-2.29c-5.79-18.23-7.62-36.78-8.03-55.46-.5-17.91,.09-35.85,.69-53.78,.07-1.87,.14-3.74-.33-5.05-.24-.66-.47-1.31-1.03-1.85-.23-.65-.68-.87-.91-1.52-.94-2.62-.45-5.38,1.38-7.51,1.71-2.46,2.19-5.22,2.24-8.18,2.45-38.53,7.01-76.35,13.33-114.42,5.97-33.89,13.8-67.7,24.18-100.58,6.37-20.37,13.84-40.76,23.21-59.99,8.1-16.56,17.21-32.37,29.67-46.06,7.08-8.07,14.63-14.83,24.54-19.12l2.62-.94c13.75-4.92,27.57-1.37,35.74,15.27l1.76,4.91c4.57,12.76,5.3,26.16,4.61,39.7Zm-142.58,272.16c1.19-.8,2.27-1.92,3.46-2.71,12.95-11.28,24.86-24.4,35.45-38.16,22.55-29.85,39.97-62.67,55.05-96.86,13.08-30.52,23.04-62.51,29.14-94.97,3.24-17.77,5.38-35.52,4.76-53.76-.26-6.92-1.29-13.93-3.64-20.48-.59-1.64-1.5-3.15-2.08-4.79-3-6.31-8.33-8.83-14.99-6.82l-2.29,.82c-1.96,.7-3.6,1.29-5.12,2.2-6.94,4.33-12.43,9.62-17.36,15.44-9.98,11.32-17.17,24.23-23.92,37.36-12.96,25.68-22.16,52.6-29.69,80.03-15.82,55.87-24.46,113.23-29.56,171.18-.14,3.74-.28,7.48-.62,11.67,.77,.09,1.1-.02,1.43-.14Z"/>
</svg>